<?xml version="1.0" standalone="no"?>
<!DOCTYPE svg PUBLIC "-//W3C//DTD SVG 20010904//EN"
 "http://www.w3.org/TR/2001/REC-SVG-20010904/DTD/svg10.dtd">
<svg version="1.0" xmlns="http://www.w3.org/2000/svg"
 width="606.000000pt" height="292.000000pt" viewBox="0 0 606.000000 292.000000"
 preserveAspectRatio="xMidYMid meet">

<g transform="translate(0.000000,292.000000) scale(0.100000,-0.100000)"
fill="#ffff" stroke="none">
<path d="M3382 2258 l3 -293 60 0 60 0 3 293 2 292 -65 0 -65 0 2 -292z"/>
<path d="M2478 2522 l-28 -3 -2 -182 c-5 -338 -4 -367 12 -378 14 -9 95 -7
105 3 2 2 7 98 9 212 3 115 8 211 10 214 12 11 29 -22 111 -216 l89 -209 102
-6 c57 -4 110 -4 119 -1 13 5 15 42 15 284 0 272 -1 279 -20 285 -12 4 -39 4
-60 0 l-40 -7 0 -211 c0 -117 -4 -218 -9 -226 -7 -10 -12 -8 -25 10 -9 13 -16
27 -16 32 0 8 -99 248 -147 359 l-16 37 -91 3 c-50 2 -103 2 -118 0z"/>
<path d="M3134 2504 c-10 -38 17 -56 81 -52 50 3 50 3 50 38 l0 35 -62 3 c-60
3 -63 2 -69 -24z"/>
<path d="M912 2504 c-13 -9 -34 -33 -48 -55 -13 -21 -30 -39 -37 -39 -19 0
-140 -50 -152 -62 -7 -7 -6 -12 3 -15 29 -11 43 -36 37 -64 -4 -18 -2 -29 4
-29 6 0 11 14 11 31 0 17 4 28 10 24 5 -3 7 -19 4 -34 -5 -23 -2 -32 15 -40
17 -10 20 -19 17 -47 -3 -20 -7 -38 -10 -41 -3 -3 -54 8 -113 25 -182 52 -267
53 -319 6 -23 -22 -26 -31 -21 -70 6 -60 48 -121 157 -229 l90 -90 -104 -105
c-109 -111 -146 -167 -146 -223 0 -44 24 -73 75 -90 27 -10 42 -21 46 -38 5
-16 7 -18 8 -6 1 17 22 23 35 10 4 -5 11 -8 15 -8 4 0 15 -8 25 -18 23 -22 52
-22 68 2 7 10 22 20 33 22 13 3 22 15 26 34 6 25 7 22 8 -18 1 -31 5 -46 12
-42 6 4 10 23 9 44 -3 57 -2 58 46 71 50 14 63 7 64 -35 0 -37 49 -204 74
-254 32 -62 68 -91 114 -91 75 0 142 113 182 307 13 64 22 87 31 84 8 -2 55
-16 106 -32 113 -34 213 -45 271 -30 34 10 46 19 60 47 15 33 15 39 0 82 -30
87 -32 110 -9 124 27 16 27 33 0 51 -14 10 -19 23 -17 43 3 27 0 29 -30 29
-21 0 -37 6 -43 18 -13 23 -36 22 -49 -3 -13 -25 -27 -25 -68 0 l-34 21 85 80
c141 131 200 238 162 295 -41 63 -153 68 -327 15 -51 -16 -99 -30 -107 -32 -9
-3 -18 20 -31 81 -31 152 -69 240 -120 284 -36 30 -84 34 -118 10z m109 -47
c32 -38 61 -108 85 -207 35 -140 37 -133 -56 -179 l-80 -40 -86 40 c-66 30
-85 43 -80 55 3 9 6 26 6 38 0 18 9 24 50 35 57 15 65 23 62 67 -2 27 2 33 38
49 22 10 39 23 37 28 -1 5 -26 19 -55 31 -61 25 -66 43 -22 88 35 34 69 33
101 -5z m-477 -306 c48 -11 117 -30 152 -42 l65 -23 -7 -91 c-3 -49 -7 -90 -8
-91 0 0 -34 -24 -73 -52 -40 -29 -77 -52 -82 -52 -19 0 -198 189 -224 238 -36
65 -32 92 13 114 44 22 56 22 164 -1z m1011 3 c44 -21 48 -44 17 -106 -25 -51
-149 -190 -204 -229 l-28 -20 -74 51 c-72 50 -73 51 -80 103 -3 29 -6 71 -6
93 0 41 0 42 58 63 65 24 213 59 255 60 16 1 44 -6 62 -15z m-636 -140 c3 -3
-1 -10 -9 -14 -133 -80 -137 -80 -125 -3 11 75 10 75 73 47 31 -13 58 -27 61
-30z m225 19 c3 -21 6 -53 6 -71 l0 -33 -62 35 c-35 19 -64 40 -66 45 -3 9 86
57 109 60 4 1 9 -16 13 -36z m-72 -100 l78 -47 0 -111 0 -110 -67 -42 c-116
-70 -106 -68 -171 -32 -31 17 -74 41 -94 52 l-38 21 0 107 0 107 63 40 c88 56
120 72 136 66 8 -2 50 -26 93 -51z m-322 -159 l0 -86 -27 18 c-16 9 -43 27
-60 38 -18 12 -33 26 -33 31 1 10 97 82 113 84 4 1 7 -38 7 -85z m502 44 c27
-18 48 -37 48 -43 0 -5 -25 -27 -55 -48 l-55 -38 0 80 c0 45 3 81 7 81 4 0 29
-15 55 -32z m-593 -110 c33 -24 66 -47 74 -53 11 -7 17 -37 22 -101 l6 -90
-41 -17 c-41 -16 -42 -16 -66 8 -30 30 -40 31 -78 6 -29 -20 -30 -19 -67 2
-37 21 -38 21 -58 3 -12 -11 -21 -31 -21 -49 0 -28 -2 -29 -32 -23 -65 13 -72
39 -32 118 24 48 204 238 225 238 5 0 36 -19 68 -42z m712 21 c34 -24 37 -43
9 -66 -11 -10 -20 -23 -20 -30 0 -7 9 -17 20 -23 13 -7 20 -21 20 -40 0 -26 4
-30 29 -30 18 0 34 -8 44 -22 l15 -23 25 24 c31 28 43 22 67 -32 25 -56 12
-82 -49 -97 -38 -9 -63 -7 -141 10 -52 11 -121 29 -152 41 l-58 21 1 52 c1
118 7 131 84 185 39 28 72 50 73 50 2 1 17 -8 33 -20z m151 -56 c22 -20 23
-41 1 -65 -22 -25 -39 -23 -59 7 -16 25 -16 27 6 50 28 30 28 30 52 8z m-612
-123 c19 -11 15 -14 -53 -44 l-57 -26 -5 23 c-9 40 -14 105 -8 111 5 4 39 -14
123 -64z m235 -16 c-3 -30 -8 -54 -10 -54 -2 0 -31 13 -65 29 -70 33 -72 28
30 85 53 30 56 26 45 -60z m-92 -54 c63 -29 76 -39 77 -58 0 -36 -48 -219 -72
-268 -21 -45 -69 -94 -92 -94 -46 0 -100 95 -134 235 -39 155 -43 139 51 184
45 21 85 38 88 38 4 -1 41 -18 82 -37z"/>
<path d="M919 1831 c-33 -34 -37 -69 -11 -100 54 -66 171 1 131 75 -13 25 -56
54 -79 54 -6 0 -25 -13 -41 -29z"/>
<path d="M3725 2365 c-60 -29 -88 -63 -108 -131 -17 -58 -9 -137 20 -187 48
-81 165 -120 276 -92 71 18 104 39 130 84 l19 31 -65 0 c-37 0 -69 -5 -73 -11
-14 -24 -69 -38 -110 -29 -48 11 -76 43 -72 84 3 34 -15 31 221 35 l97 1 0 45
c0 60 -19 103 -63 142 -67 59 -184 71 -272 28z m176 -65 c10 -6 25 -24 34 -39
22 -44 4 -52 -102 -49 -80 3 -88 5 -91 24 -2 11 7 32 18 47 18 23 29 27 71 27
28 0 59 -5 70 -10z"/>
<path d="M3140 2171 c0 -238 -3 -230 86 -216 l44 6 -2 207 -3 207 -62 3 -63 3
0 -210z"/>
<path d="M2557 1680 c-63 -24 -76 -36 -100 -89 -25 -58 -17 -119 24 -166 34
-39 94 -59 204 -69 91 -9 115 -25 115 -76 0 -55 -34 -80 -111 -80 -47 0 -63 5
-88 25 -16 14 -33 35 -36 45 -5 17 -16 20 -71 20 -63 0 -65 -1 -58 -22 15 -50
23 -64 56 -95 96 -91 348 -81 418 17 50 70 31 189 -37 231 -37 23 -147 48
-215 48 -74 2 -106 78 -50 121 23 18 37 21 86 18 52 -4 63 -9 86 -36 24 -30
31 -32 88 -32 68 0 72 5 44 57 -37 69 -115 103 -231 103 -50 -1 -93 -7 -124
-20z"/>
<path d="M4690 1484 c0 -231 6 -260 67 -314 49 -43 104 -60 193 -60 121 0 199
39 240 121 18 34 20 59 20 244 l0 205 -65 0 -65 0 0 -185 c0 -246 -12 -276
-113 -281 -61 -3 -110 15 -129 48 -9 16 -14 81 -16 221 l-4 197 -64 0 -64 0 0
-196z"/>
<path d="M3165 1643 c-12 -2 -32 -25 -49 -54 -22 -39 -38 -55 -73 -70 -36 -15
-44 -23 -41 -41 2 -18 11 -24 36 -26 17 -2 33 -6 33 -10 1 -4 3 -52 4 -108 4
-129 19 -168 77 -194 44 -20 123 -26 146 -11 8 5 12 23 10 47 -3 38 -4 39 -44
40 -23 1 -46 4 -52 8 -6 4 -9 40 -6 94 2 48 3 97 4 109 0 20 6 22 58 25 l57 3
3 43 3 42 -55 0 c-45 0 -57 4 -66 20 -6 11 -8 25 -5 31 8 12 -2 60 -13 58 -4
-1 -16 -4 -27 -6z"/>
<path d="M4420 1638 c-6 -7 -21 -31 -33 -53 -15 -26 -37 -47 -66 -62 -54 -28
-54 -27 -46 -52 4 -13 16 -21 38 -23 l32 -3 5 -115 c4 -90 9 -122 24 -147 24
-40 79 -63 147 -63 42 0 51 3 58 22 4 12 5 34 1 48 -5 22 -13 25 -53 28 l-48
3 3 112 3 112 55 5 55 5 3 42 3 42 -58 3 -58 3 -5 50 c-4 42 -9 51 -27 53 -11
2 -26 -3 -33 -10z"/>
<path d="M3537 1538 c-47 -13 -117 -77 -117 -106 0 -20 5 -22 55 -22 47 0 57
3 70 24 36 54 148 54 161 0 10 -38 -12 -53 -112 -75 -49 -11 -102 -24 -117
-31 -62 -24 -84 -95 -51 -159 39 -77 202 -78 251 -2 20 30 36 25 43 -13 5 -27
8 -29 55 -29 l50 0 -4 165 c-3 185 -10 208 -71 236 -42 21 -160 27 -213 12z
m173 -240 c0 -31 -38 -96 -61 -103 -67 -22 -119 1 -119 51 0 29 22 45 94 69
64 22 86 18 86 -17z"/>
<path d="M5544 1539 c-17 -5 -37 -16 -44 -24 -17 -21 -37 -19 -45 5 -6 19 -14
21 -68 18 l-62 -3 -3 -292 -2 -293 23 -5 c13 -4 41 -5 63 -3 l39 3 3 99 c3
113 13 137 46 108 87 -76 233 -49 286 53 36 71 36 190 0 255 -42 76 -137 108
-236 79z m68 -89 c21 -6 43 -21 50 -33 15 -28 15 -145 0 -174 -27 -49 -139
-54 -183 -7 -20 21 -24 36 -24 89 0 90 29 125 110 134 6 0 27 -4 47 -9z"/>
<path d="M3944 1527 c-2 -7 -3 -100 -2 -207 l3 -195 60 0 60 0 5 116 c7 147
16 163 100 180 l60 12 0 53 0 54 -45 0 c-39 0 -48 -4 -72 -35 -32 -40 -43 -44
-43 -16 0 43 -10 51 -66 51 -35 0 -56 -5 -60 -13z"/>
<path d="M685 858 c32 -155 17 -148 289 -148 219 0 226 1 251 23 28 23 59 124
46 145 -5 8 -23 7 -61 -4 -116 -31 -455 -26 -476 7 -3 5 -17 9 -30 9 -24 0
-25 -3 -19 -32z"/>
<path d="M2660 851 c-19 -4 -59 -20 -89 -37 -95 -51 -137 -145 -129 -284 4
-65 10 -87 34 -127 62 -100 157 -140 304 -130 85 5 142 26 184 65 34 32 65 96
66 135 l0 28 -67 -3 c-66 -3 -67 -4 -75 -35 -22 -85 -168 -124 -247 -66 -65
48 -88 193 -45 278 29 57 91 88 162 81 68 -6 99 -27 123 -82 l20 -44 64 0 c61
0 65 1 65 23 0 29 -42 118 -66 139 -55 49 -212 79 -304 59z"/>
<path d="M3248 696 c-76 -27 -119 -73 -104 -111 10 -26 104 -10 129 21 15 20
28 24 72 24 43 0 57 -4 68 -21 18 -24 11 -56 -13 -69 -10 -5 -51 -14 -91 -21
-88 -13 -153 -39 -168 -67 -16 -31 -13 -104 5 -131 32 -45 118 -64 181 -40 15
5 40 22 55 36 32 30 58 25 58 -12 0 -23 3 -25 49 -25 35 0 51 4 55 16 10 26 7
240 -5 292 -11 55 -45 93 -98 111 -45 15 -147 13 -193 -3z m174 -241 c-11 -93
-101 -145 -156 -89 -21 21 -20 57 3 78 22 20 98 45 131 43 22 -2 25 -6 22 -32z"/>
<path d="M3864 691 c-18 -11 -35 -24 -38 -30 -12 -19 -34 -12 -38 12 -3 20 -8
22 -68 22 l-65 0 0 -205 0 -205 67 -3 67 -3 3 146 c3 140 4 148 27 166 27 22
89 25 115 6 25 -18 35 -77 36 -204 l0 -113 60 0 60 0 0 113 c0 127 11 180 43
202 28 19 86 19 115 -1 21 -14 22 -21 22 -165 l0 -150 68 3 67 3 0 155 c0 140
-2 159 -22 196 -27 50 -72 74 -140 74 -52 0 -104 -25 -123 -59 -15 -29 -33
-26 -61 8 -13 15 -34 33 -46 40 -34 18 -114 13 -149 -8z"/>
<path d="M4724 696 c-18 -8 -35 -19 -38 -25 -11 -18 -33 -13 -39 9 -5 19 -12
21 -69 18 l-63 -3 0 -295 0 -295 62 -3 62 -3 7 47 c3 25 4 69 1 98 -3 28 -1
60 5 70 9 17 11 17 32 -3 41 -38 134 -53 193 -30 115 43 161 226 87 345 -18
29 -44 56 -64 66 -42 21 -133 22 -176 4z m90 -90 c42 -17 60 -66 54 -137 -8
-75 -35 -99 -114 -99 -55 0 -65 3 -83 26 -47 59 -37 164 18 201 39 26 77 29
125 9z"/>
<path d="M5725 695 c-51 -22 -78 -59 -79 -108 -2 -88 37 -119 170 -138 44 -6
87 -18 97 -26 41 -38 2 -83 -71 -83 -36 0 -49 6 -72 30 -24 26 -35 30 -79 30
-57 0 -63 -11 -34 -60 18 -31 59 -52 137 -70 53 -12 136 0 189 27 58 30 84
112 52 172 -16 32 -77 61 -126 61 -38 0 -120 20 -136 33 -7 5 -13 18 -13 28 0
32 28 49 81 49 40 0 54 -5 73 -25 19 -20 33 -25 75 -25 37 0 51 4 51 14 0 24
-50 76 -87 91 -44 19 -186 19 -228 0z"/>
<path d="M5094 686 c-3 -8 -4 -84 -2 -169 3 -165 10 -188 63 -223 58 -38 150
-31 199 15 31 29 48 29 56 1 5 -23 10 -25 65 -25 l60 0 0 205 0 205 -62 3 -63
3 0 -119 c0 -131 -10 -173 -45 -196 -33 -22 -88 -20 -116 3 -23 18 -24 27 -29
163 l-5 143 -58 3 c-44 2 -59 -1 -63 -12z"/>
<path d="M840 632 c-82 -3 -95 -10 -85 -41 6 -20 12 -21 225 -21 184 0 219 2
224 15 14 38 -3 45 -108 46 -55 0 -119 1 -141 2 -22 1 -74 1 -115 -1z"/>
<path d="M754 496 c-3 -8 -4 -23 -2 -33 3 -17 20 -18 225 -21 216 -2 222 -2
228 18 15 46 -3 50 -232 50 -177 0 -215 -2 -219 -14z"/>
<path d="M757 373 c-4 -3 -7 -17 -7 -30 l0 -23 225 0 c192 0 226 2 231 15 4 8
1 22 -6 30 -10 12 -49 15 -225 15 -116 0 -215 -3 -218 -7z"/>
<path d="M886 219 c44 -44 149 -43 189 1 18 20 18 20 -96 20 l-113 0 20 -21z"/>
</g>
</svg>
