<?xml version="1.0" encoding="utf-8"?>
<!-- Generator: Adobe Illustrator 21.0.0, SVG Export Plug-In . SVG Version: 6.00 Build 0)  -->
<svg version="1.0" id="Layer_1" xmlns="http://www.w3.org/2000/svg" xmlns:xlink="http://www.w3.org/1999/xlink" x="0px" y="0px"
	 viewBox="0 0 154.3 45.4" style="enable-background:new 0 0 154.3 45.4;" xml:space="preserve">
<style type="text/css">
	.st0{fill:#FFFFFF;}
</style>
<g>
	<path class="st0" d="M63.1,34.2c-1.2,0-2.3-0.1-3.3-0.4c-1-0.3-1.9-0.6-2.7-1s-1.5-0.8-2-1.2c-0.6-0.4-1-0.8-1.3-1.1l2.6-4.1
		c0.3,0.3,0.7,0.6,1.2,1s1,0.7,1.6,1.1s1.2,0.6,1.9,0.8c0.7,0.2,1.4,0.3,2.2,0.3c0.7,0,1.4-0.1,1.9-0.3c0.6-0.2,1-0.6,1.3-1
		s0.5-1,0.5-1.7c0-0.6-0.1-1.1-0.4-1.5s-0.6-0.8-1.1-1.2c-0.5-0.3-1.1-0.7-1.8-1s-1.6-0.7-2.5-1.1c-0.7-0.3-1.3-0.7-2-1.1
		c-0.6-0.4-1.2-0.9-1.7-1.4s-0.9-1.1-1.2-1.8c-0.3-0.7-0.4-1.4-0.4-2.2c0-1,0.2-1.9,0.6-2.8c0.4-0.9,0.9-1.7,1.7-2.4
		c0.7-0.7,1.6-1.3,2.6-1.7c1-0.4,2.1-0.6,3.4-0.6c0.9,0,1.9,0.1,2.8,0.4c0.9,0.2,1.8,0.6,2.6,1c0.8,0.4,1.5,0.8,2,1.3l-2.1,3.9
		c-0.4-0.4-0.9-0.7-1.5-1s-1.2-0.5-1.8-0.7s-1.3-0.3-1.9-0.3c-0.7,0-1.4,0.1-1.9,0.4c-0.5,0.3-0.9,0.6-1.2,1s-0.4,0.9-0.4,1.4
		c0,0.4,0.1,0.8,0.3,1.1c0.2,0.3,0.4,0.6,0.8,0.8c0.3,0.2,0.7,0.4,1.2,0.6s1,0.4,1.5,0.6c1.2,0.5,2.3,1,3.2,1.5c1,0.5,1.8,1,2.5,1.6
		s1.2,1.3,1.6,2.1c0.4,0.8,0.5,1.8,0.5,2.9c0,1.6-0.4,3-1.2,4.2c-0.8,1.2-1.9,2.1-3.2,2.7C66.6,33.9,65,34.2,63.1,34.2z"/>
	<path class="st0" d="M76.3,41.7V17.9H81v1.9c0.6-0.8,1.4-1.4,2.4-1.8c0.9-0.4,2-0.6,3.1-0.6c1.5,0,2.9,0.4,4.1,1.1s2.1,1.7,2.8,3
		c0.7,1.3,1,2.7,1,4.3c0,1.6-0.3,3-1,4.3s-1.6,2.3-2.8,3c-1.2,0.7-2.5,1.1-4,1.1c-1.1,0-2.1-0.2-3.1-0.7c-1-0.4-1.8-1.1-2.5-1.9
		v10.1C81,41.7,76.3,41.7,76.3,41.7z M85.1,30.2c0.8,0,1.5-0.2,2.2-0.6c0.6-0.4,1.1-0.9,1.5-1.5c0.4-0.7,0.5-1.4,0.5-2.2
		s-0.2-1.6-0.6-2.3c-0.4-0.7-0.9-1.2-1.5-1.6s-1.3-0.6-2.2-0.6c-0.8,0-1.5,0.2-2.2,0.6c-0.6,0.4-1.1,0.9-1.5,1.6s-0.6,1.4-0.6,2.3
		c0,0.8,0.2,1.6,0.5,2.2c0.4,0.7,0.9,1.2,1.5,1.5C83.6,30,84.3,30.2,85.1,30.2z"/>
	<path class="st0" d="M104.7,34.2c-1.5,0-2.8-0.4-4-1.1c-1.2-0.7-2.1-1.7-2.8-3c-0.7-1.3-1-2.7-1-4.3c0-1.6,0.3-3,1-4.3
		s1.6-2.3,2.8-3c1.2-0.7,2.5-1.1,4.1-1.1c1.1,0,2.2,0.2,3.1,0.6c1,0.4,1.8,1,2.4,1.8v-1.9h4.7v15.8h-4.7v-2.1
		c-0.7,0.8-1.5,1.5-2.5,1.9C106.8,34,105.8,34.2,104.7,34.2z M106.1,30.2c0.8,0,1.6-0.2,2.2-0.6s1.1-0.9,1.5-1.5
		c0.4-0.7,0.5-1.4,0.5-2.3s-0.2-1.6-0.5-2.3c-0.4-0.7-0.9-1.2-1.5-1.5c-0.6-0.4-1.4-0.6-2.2-0.6c-0.8,0-1.5,0.2-2.2,0.6
		s-1.1,0.9-1.5,1.5c-0.4,0.7-0.6,1.4-0.6,2.3c0,0.8,0.2,1.6,0.5,2.3c0.4,0.7,0.9,1.2,1.5,1.5C104.6,30,105.3,30.2,106.1,30.2z"/>
	<path class="st0" d="M120,33.7V17.9h4.7v2.3c0.6-0.9,1.3-1.6,2.2-2c0.8-0.5,1.8-0.7,2.7-0.7c0.6,0,1.1,0.1,1.7,0.2
		c0.6,0.2,1.1,0.4,1.5,0.6l-2,4c-0.4-0.2-0.8-0.4-1.2-0.6c-0.5-0.1-0.9-0.2-1.3-0.2c-0.6,0-1.2,0.2-1.8,0.5c-0.6,0.3-1,0.7-1.3,1.2
		s-0.5,1.1-0.5,1.6v8.8H120V33.7z"/>
	<path class="st0" d="M134.9,33.7V7.2h4.7v16.5l5.8-5.8h6.1l-7.7,7.7l8.1,8.1h-6.1l-6.3-6.2v6.2C139.5,33.7,134.9,33.7,134.9,33.7z"
		/>
</g>
<path class="st0" d="M22.4,2.3c-11.6,0-21,9.4-21,21s9.4,21,21,21s21-9.4,21-21C43.5,11.7,34,2.3,22.4,2.3z M22,34.5
	c-0.3,0.6-0.7,1.1-1.2,1.4c0-0.6-0.2-1.1-0.6-1.6C20,34,19.6,33.6,19,33.2L18.7,33c-0.7-0.6-1.3-1.1-1.5-1.5c-0.5-0.6-0.8-1.3-0.8-2
	c-0.1-1.4,0.3-2.8,1-4.3c0.2,0.6,0.5,1.3,0.9,1.8c0.3,0.4,0.7,0.9,1.3,1.5l0.6,0.6c0.7,0.7,1.2,1.3,1.5,1.6c0.5,0.5,0.7,1.1,0.7,1.9
	C22.4,33.3,22.3,33.9,22,34.5z M22.5,28.6c-0.2-0.2-0.4-0.3-0.6-0.5l-0.3-0.2c-1-0.5-1.9-1.2-2.5-1.9c-0.6-0.6-1.1-1.3-1.4-2
	c-0.3-0.6-0.5-1.3-0.5-2c-0.1-0.6,0-1.2,0.1-1.9c0.1-0.5,0.3-1,0.6-1.6c0.2-0.4,0.4-0.9,0.6-1.3c0.2-0.3,0.4-0.6,0.6-0.8l0.3-0.3
	c0.2-0.3,0.4-0.5,0.5-0.7c0.5-0.8,1-1.5,1.2-2.2c0.3-0.8,0.3-1.7,0.2-2.6c1.2,1,1.9,2.1,2.1,3.4c0.3,1.3,0.1,2.6-0.6,3.9
	c-0.2,0.2-0.4,0.6-0.6,1c-0.5,0.8-0.9,1.5-1,1.9c-0.5,1.4-0.4,2.9,0.5,4.6l1.5,3.9C23.1,29.2,22.9,28.9,22.5,28.6z M27.7,31.3
	c-0.4,0.8-0.8,1.4-1.4,2c-0.5,0.5-1.2,1-2,1.4l0.3-0.6c0.7-1.4,1-2.8,0.8-4.2c-0.2-1.3-0.7-2.6-1.7-4c-0.8-1.2-1.1-2.5-0.7-4
	c0.2-1,0.8-2,1.7-3c-0.1,0.9,0.1,1.8,0.5,2.6c0.2,0.5,0.7,1.3,1.3,2.2l0.1,0.1c0.6,0.9,1.1,1.7,1.4,2.3c0.4,0.8,0.5,1.5,0.5,2.3
	C28.4,29.2,28.2,30.2,27.7,31.3z"/>
</svg>
