<svg width="223" height="50" viewBox="0 0 223 50" fill="none" xmlns="http://www.w3.org/2000/svg">
<path d="M61.8311 8.25439H69.5031V41.0046H61.8311V8.25439Z" fill="black"/>
<path d="M90.3443 24.2324C89.6131 23.3749 88.6081 22.9462 87.3294 22.9462C85.8326 22.9462 84.6314 23.4998 83.726 24.6069C82.8205 25.7141 82.3684 27.3125 82.3698 29.402V41.0047H75.0723V17.1448H80.1245L81.3881 19.9045C82.33 18.7769 83.5243 17.8872 84.8743 17.3074C86.2987 16.6923 87.8359 16.3818 89.3874 16.3957C92.3508 16.3957 94.6516 17.2765 96.2898 19.0381C97.9279 20.7997 98.7463 23.3495 98.7449 26.6875V41.0047H91.4474V28.0911C91.4474 26.3761 91.0797 25.0899 90.3443 24.2324Z" fill="white"/>
<path d="M105.902 31.04V23.5059H101.225V17.1447H106.137L107.219 11.2487H113.208V17.1447H120.46V23.5059H113.202V30.8528C113.202 32.0697 113.506 32.9738 114.114 33.5651C114.731 34.1599 115.651 34.4542 116.898 34.4542H120.501V41.0046H115.729C109.179 41.0046 105.904 37.6831 105.902 31.04Z" fill="white"/>
<path d="M129.389 40.1157C127.446 39.0755 125.833 37.5113 124.734 35.6005C123.627 33.6798 123.074 31.5045 123.074 29.0748C123.041 26.7982 123.615 24.554 124.734 22.5716C125.824 20.6593 127.428 19.0908 129.365 18.0441C131.347 16.9466 133.601 16.3978 136.127 16.3978C138.683 16.3978 140.96 16.9356 142.957 18.0112C144.897 19.0347 146.51 20.5828 147.613 22.479C148.728 24.4123 149.302 26.6104 149.273 28.8422C149.295 29.6423 149.233 30.4425 149.086 31.2294H130.474C130.784 32.7564 131.447 33.9103 132.462 34.6909C133.477 35.4716 134.781 35.8612 136.372 35.8598C138.617 35.8598 140.254 35.1114 141.284 33.6146H148.771C147.913 36.027 146.296 38.0959 144.161 39.5106C141.966 41.0061 139.323 41.7545 136.232 41.7559C133.667 41.7545 131.386 41.2077 129.389 40.1157ZM141.793 26.455C141.012 23.6781 139.156 22.2897 136.226 22.2897C134.973 22.2614 133.747 22.6485 132.738 23.3907C131.73 24.1592 131 25.2348 130.657 26.455H141.793Z" fill="white"/>
<path d="M153.111 17.1448H158.164L159.475 19.9519C160.274 19.0237 161.284 18.3015 162.421 17.8466C163.642 17.3656 164.945 17.1272 166.258 17.1448H168.832V24.1624H165.226C163.58 24.1624 162.364 24.5912 161.578 25.4487C160.792 26.3061 160.402 27.6239 160.409 29.402V41.0047H153.111V17.1448Z" fill="white"/>
<path d="M187.193 24.2324C186.458 23.3749 185.451 22.9462 184.174 22.9462C182.677 22.9462 181.477 23.4998 180.573 24.6069C179.669 25.7141 179.217 27.3125 179.217 29.402V41.0047H171.917V17.1448H176.969L178.233 19.9045C179.174 18.7772 180.368 17.8874 181.717 17.3074C183.146 16.6904 184.688 16.3798 186.244 16.3957C189.207 16.3957 191.507 17.2765 193.145 19.0381C194.783 20.7997 195.602 23.3495 195.602 26.6875V41.0047H188.302V28.0911C188.302 26.3761 187.933 25.0899 187.193 24.2324Z" fill="white"/>
<path d="M201.838 28.9142C203.475 27.5889 205.837 26.9262 208.926 26.9262H214.962V25.9446C214.962 24.7592 214.649 23.8544 214.025 23.2301C213.401 22.6059 212.496 22.2938 211.311 22.2938C210.252 22.2938 209.386 22.5434 208.714 23.0428C208.055 23.527 207.612 24.2492 207.479 25.0555H200.13C200.566 22.3404 201.767 20.2193 203.731 18.6923C205.696 17.1653 208.254 16.4012 211.405 16.3998C214.899 16.3998 217.581 17.273 219.452 19.0196C221.323 20.7661 222.259 23.2445 222.259 26.4549V41.0047H217.207L216.083 38.5351C214.117 40.6877 211.497 41.764 208.224 41.764C205.447 41.764 203.279 41.1165 201.721 39.8213C200.162 38.5262 199.382 36.7426 199.381 34.4707C199.381 32.0917 200.2 30.2395 201.838 28.9142ZM207.615 35.2774C208.113 35.6684 208.893 35.8632 209.955 35.8618C211.576 35.8618 212.816 35.5113 213.673 34.8102C214.09 34.4785 214.424 34.054 214.647 33.5706C214.871 33.0872 214.979 32.5582 214.962 32.0258V31.6513H209.817C207.852 31.6513 206.869 32.3372 206.868 33.7092C206.858 34.0106 206.921 34.3099 207.051 34.5821C207.181 34.8542 207.374 35.0912 207.615 35.2733V35.2774Z" fill="white"/>
<path fill-rule="evenodd" clip-rule="evenodd" d="M37.5041 23.2158L43.0997 17.6181C45.6454 15.0745 49.9959 16.8793 49.9959 20.4766V42.4164C49.9956 43.4126 49.7991 44.399 49.4177 45.3192C49.0362 46.2394 48.4772 47.0755 47.7727 47.7797C47.0681 48.4839 46.2317 49.0424 45.3113 49.4234C44.3908 49.8043 43.4044 50.0003 42.4082 50H7.58767C5.5753 50 3.64534 49.2006 2.22238 47.7776C0.799417 46.3547 4.46815e-06 44.4247 4.46815e-06 42.4123V7.59179C-0.0010773 6.59521 0.194279 5.60818 0.574904 4.68715C0.955528 3.76612 1.51396 2.92915 2.21826 2.22408C2.92257 1.51901 3.75894 0.959675 4.67955 0.578052C5.60017 0.196428 6.58698 0 7.58356 0H31.4393C35.0387 0 36.8394 4.35051 34.2958 6.89414L27.7433 13.4549C27.091 14.0933 26.5719 14.8547 26.2159 15.695C25.8598 16.5354 25.674 17.438 25.6691 18.3506C25.6642 19.2633 25.8404 20.1678 26.1874 21.0119C26.5344 21.8561 27.0453 22.623 27.6907 23.2683C28.336 23.9137 29.1029 24.4246 29.9471 24.7716C30.7912 25.1186 31.6957 25.2948 32.6084 25.2899C33.521 25.285 34.4236 25.0992 35.264 24.7431C36.1043 24.3871 36.8657 23.868 37.5041 23.2158ZM18.5763 24.2724C21.3537 23.7148 24.228 25.1765 25.3531 27.8927C26.6323 30.9809 25.1658 34.5214 22.0776 35.8006C20.9628 36.2623 19.7892 36.3663 18.6842 36.1654C17.869 36.0187 17.0888 35.7055 16.3938 35.2411C15.3985 34.576 14.6227 33.6308 14.1646 32.5248C13.7065 31.4189 13.5867 30.202 13.8202 29.0279C14.0537 27.8538 14.6302 26.7754 15.4766 25.929C16.3231 25.0825 17.4015 24.5061 18.5756 24.2725C18.5758 24.2725 18.5761 24.2724 18.5763 24.2724Z" fill="white"/>
</svg>
