<svg width="639" height="107" viewBox="0 0 639 107" fill="none" xmlns="http://www.w3.org/2000/svg">
<path d="M379 3C358.573 3 342 17.7579 342 35.9343C342 56.8488 366.667 89.9923 375.724 101.44C376.1 101.923 376.593 102.316 377.162 102.588C377.731 102.859 378.361 103 379 103C379.639 103 380.269 102.859 380.838 102.588C381.407 102.316 381.9 101.923 382.276 101.44C391.333 89.9971 416 56.8657 416 35.9343C416 17.7579 399.427 3 379 3Z" fill="#E16D3C" stroke="#E16D3C" stroke-width="5" stroke-linecap="round" stroke-linejoin="round"/>
<path d="M378.44 48.458C384.239 48.458 388.94 43.757 388.94 37.958C388.94 32.159 384.239 27.458 378.44 27.458C372.641 27.458 367.94 32.159 367.94 37.958C367.94 43.757 372.641 48.458 378.44 48.458Z" fill="#161F33" stroke="#161F33" stroke-width="5" stroke-linecap="round" stroke-linejoin="round"/>
<path d="M90.6603 19.6115C107.076 39.0019 106.084 72.1397 88.8217 90.0554C74.2837 105.144 56.7071 109.775 36.8412 104.399C18.7275 99.4969 6.88913 87.2658 2.23941 69.1601C-3.43588 47.0607 1.46011 27.5139 19.4005 12.4311C40.0674 -4.94364 72.0014 -2.79392 90.6603 19.6115ZM70.6637 32.2104C62.1553 20.1255 37.4419 19.7751 29.4125 36.3364C24.3383 46.8024 23.5599 57.5291 27.7271 68.2088C31.4859 77.842 39.0731 83.13 49.5582 83.7227C59.4333 84.2809 67.7004 81.2059 72.5575 72.0729C79.6255 58.783 79.0107 45.6221 70.6637 32.2104Z" fill="#E16D3C"/>
<path d="M105.694 78.4713C105.402 54.5508 105.172 31.0625 104.872 7.57516C104.826 3.97317 106.306 2.42245 109.963 2.61123C114.618 2.85158 119.295 3.03084 123.948 2.85195C127.765 2.70516 128.773 4.32589 128.748 7.89345C128.626 25.5584 128.688 43.2246 128.712 60.8904C128.716 63.7218 128.603 66.5879 128.987 69.3771C129.769 75.0651 131.78 80.0968 137.881 82.1022C144.047 84.1288 150.086 84.0367 155.419 79.9276C160.329 76.1436 160.577 70.2907 160.667 64.8959C160.97 46.735 160.837 28.5669 160.872 10.4016C160.886 3.14236 160.886 2.98464 168.146 2.94277C195.62 2.78445 223.096 2.79677 250.569 2.59341C255.397 2.55764 257.136 4.03066 257.01 9.21487C256.657 23.6621 256.919 23.62 242.57 23.6897C230.855 23.7465 232.388 22.3585 232.354 33.6621C232.288 55.3275 232.18 76.995 232.449 98.6572C232.511 103.602 230.943 104.976 226.244 104.645C220.81 104.264 215.329 104.557 209.202 104.557C209.202 102.181 209.202 100.407 209.202 98.6332C209.202 75.801 209.07 52.9675 209.305 30.1377C209.355 25.2501 208.276 23.1663 202.983 23.5755C197.043 24.0348 191.04 23.6811 184.567 23.6811C184.464 25.7783 184.305 27.5587 184.301 29.3392C184.274 42.6718 184.397 56.0059 184.243 69.3368C183.983 91.7572 172.903 104.024 150.655 106.193C140.087 107.223 129.71 106.193 120.225 100.65C111.833 95.7458 107.897 87.9292 105.694 78.4713ZM107.274 14.5588C107.274 33.3764 106.891 52.2063 107.501 71.0041C107.691 76.8443 109.405 83.3323 112.479 88.2323C118.367 97.6168 127.32 103.149 138.988 103.008C143.151 102.958 147.401 102.465 151.458 103.12C158.294 104.223 163.648 100.203 168.688 97.4948C177.254 92.8913 180.844 83.7083 181.111 74.2749C181.648 55.306 181.278 36.3113 181.278 17.3272C181.278 5.96566 181.267 6.22726 170.13 5.88167C165.118 5.72616 164.107 7.50234 164.171 12.135C164.421 30.4496 164.672 48.7843 164.001 67.0776C163.825 71.8812 161.262 77.3271 158.145 81.124C153.298 87.0288 145.609 87.208 138.823 85.6642C133.606 84.4773 128.357 80.6312 127.536 75.0415C125.791 63.1527 124.944 51.097 124.405 39.0794C124.064 31.4906 125.146 23.849 125.229 16.2272C125.353 4.88485 126.442 6.0024 115.172 6.01565C106.377 6.02596 107.355 4.99935 107.274 14.5588Z" fill="#E16D3C"/>
<path d="M320.062 6.26502C327.828 10.18 327.827 10.1794 324.143 17.7893C323.998 18.0878 323.933 18.4249 323.786 18.7219C318.866 28.6686 319.001 28.2518 308.507 24.8342C303.649 23.252 298.062 22.9061 292.97 23.4746C290.459 23.7549 287.43 26.9785 286.233 29.5999C284.62 33.1304 287.385 35.9091 290.509 37.5821C295.481 40.2457 300.613 42.6099 305.607 45.235C309.572 47.3193 313.565 49.3997 317.313 51.8398C328.33 59.0134 332.339 69.3264 329.713 82.0259C327.137 94.4811 318.571 101.365 306.804 104.448C289.587 108.96 273.553 105.736 258.527 96.4116C254.731 94.0561 254.015 91.7835 256.652 87.9985C259.763 83.5334 262.378 78.7226 265.009 74.3892C272.053 77.6197 278.442 81.2289 285.284 83.4224C289.12 84.652 293.93 84.3232 297.878 83.2048C300.525 82.4551 303.793 79.3526 304.286 76.8173C304.785 74.2517 303.011 69.9344 300.822 68.4126C295.273 64.5543 288.945 61.8112 282.908 58.6602C274.783 54.4193 267.623 49.2561 264.384 40.1159C260.439 28.9797 263.366 19.2466 271.329 11.2858C282.832 -0.214781 296.914 -0.977354 311.746 3.26862C314.452 4.0434 317.061 5.15827 320.062 6.26502Z" fill="#E16D3C"/>
<path d="M580.067 7.61912V7.61911C580.062 5.96127 580.303 4.94024 580.855 4.32113C581.392 3.71827 582.338 3.37526 584.089 3.38971C600.582 3.52596 617.077 3.5209 633.57 3.38232C635.306 3.36774 636.302 3.68206 636.865 4.27049C637.426 4.85787 637.681 5.85023 637.582 7.53074C637.354 11.3706 637.384 15.2382 637.575 19.0738C637.659 20.7635 637.351 21.7588 636.749 22.3434C636.139 22.9357 635.101 23.2311 633.411 23.1986L633.402 23.6985L633.411 23.1986C629.417 23.1218 625.421 23.1393 621.432 23.1568C621.257 23.1575 621.082 23.1583 620.907 23.1591C616.741 23.1771 612.583 23.1906 608.429 23.0929L608.417 23.5927L608.429 23.0929C606.518 23.0479 604.948 23.2948 603.907 24.1997C602.839 25.1279 602.462 26.6206 602.617 28.7062C602.86 31.9913 602.821 35.3235 602.624 38.6277C602.514 40.4622 602.851 41.8151 603.806 42.6748C604.742 43.5171 606.146 43.7674 607.863 43.7333C611.217 43.6664 614.573 43.6912 617.937 43.716C618.489 43.7201 619.042 43.7242 619.595 43.7279C623.51 43.7539 627.435 43.7596 631.356 43.5995C633.383 43.5166 634.508 43.8722 635.127 44.5452C635.753 45.2258 635.998 46.3755 635.87 48.2484C635.643 51.5821 635.599 54.9718 635.885 58.3115C636.064 60.4079 635.811 61.7055 635.113 62.4719C634.421 63.2304 633.155 63.6162 630.892 63.5049C627.055 63.3161 623.212 63.3164 619.378 63.3449C618.699 63.3499 618.019 63.3558 617.34 63.3618C614.186 63.3893 611.039 63.4168 607.895 63.3553C606.187 63.322 604.782 63.5739 603.84 64.4146C602.878 65.2728 602.526 66.6239 602.625 68.4605C602.813 71.9272 602.773 75.4207 602.635 78.9047C602.567 80.6406 602.863 82.0119 603.758 82.9282C604.652 83.8447 606.028 84.1872 607.82 84.1554C611.929 84.0824 616.04 84.0993 620.158 84.1162L620.302 84.1168C624.466 84.1339 628.636 84.15 632.806 84.0715C634.669 84.0365 635.894 84.3275 636.631 84.9915C637.347 85.6368 637.726 86.7535 637.586 88.7097C637.495 89.982 637.546 91.3582 637.628 92.7318C637.656 93.2017 637.688 93.6695 637.72 94.1337C637.781 95.0392 637.842 95.9312 637.873 96.7992C637.92 98.108 637.897 99.3162 637.713 100.353C637.529 101.391 637.191 102.214 636.644 102.794C636.122 103.348 635.339 103.72 634.325 103.948C633.312 104.177 632.114 104.253 630.81 104.253C629.625 104.252 628.376 104.187 627.121 104.123C626.997 104.116 626.872 104.11 626.748 104.103C625.376 104.033 624.005 103.971 622.751 104.004C618.841 104.108 614.932 104.085 610.849 104.061C609.031 104.05 607.177 104.039 605.274 104.038C603.115 104.038 600.996 104.028 598.907 104.019C593.916 103.995 589.092 103.973 584.275 104.085C582.632 104.123 581.615 103.893 580.996 103.343C580.389 102.806 580.038 101.845 580.045 100.073C580.159 69.2548 580.148 38.4366 580.067 7.61912Z" fill="#E16D3C"/>
<path d="M580.067 7.61912V7.61911C580.062 5.96127 580.303 4.94024 580.855 4.32113C581.392 3.71827 582.338 3.37526 584.089 3.38971C600.582 3.52596 617.077 3.5209 633.57 3.38232C635.306 3.36774 636.302 3.68206 636.865 4.27049C637.426 4.85787 637.681 5.85023 637.582 7.53074C637.354 11.3706 637.384 15.2382 637.575 19.0738C637.659 20.7635 637.351 21.7588 636.749 22.3434C636.139 22.9357 635.101 23.2311 633.411 23.1986L633.402 23.6985L633.411 23.1986C629.417 23.1218 625.421 23.1393 621.432 23.1568C621.257 23.1575 621.082 23.1583 620.907 23.1591C616.741 23.1771 612.583 23.1906 608.429 23.0929L608.417 23.5927L608.429 23.0929C606.518 23.0479 604.948 23.2948 603.907 24.1997C602.839 25.1279 602.462 26.6206 602.617 28.7062C602.86 31.9913 602.821 35.3235 602.624 38.6277C602.514 40.4622 602.851 41.8151 603.806 42.6748C604.742 43.5171 606.146 43.7674 607.863 43.7333C611.217 43.6664 614.573 43.6912 617.937 43.716C618.489 43.7201 619.042 43.7242 619.595 43.7279C623.51 43.7539 627.435 43.7596 631.356 43.5995C633.383 43.5166 634.508 43.8722 635.127 44.5452C635.753 45.2258 635.998 46.3755 635.87 48.2484C635.643 51.5821 635.599 54.9718 635.885 58.3115C636.064 60.4079 635.811 61.7055 635.113 62.4719C634.421 63.2304 633.155 63.6162 630.892 63.5049C627.055 63.3161 623.212 63.3164 619.378 63.3449C618.699 63.3499 618.019 63.3558 617.34 63.3618C614.186 63.3893 611.039 63.4168 607.895 63.3553C606.187 63.322 604.782 63.5739 603.84 64.4146C602.878 65.2728 602.526 66.6239 602.625 68.4605C602.813 71.9272 602.773 75.4207 602.635 78.9047C602.567 80.6406 602.863 82.0119 603.758 82.9282C604.652 83.8447 606.028 84.1872 607.82 84.1554C611.929 84.0824 616.04 84.0993 620.158 84.1162L620.302 84.1168C624.466 84.1339 628.636 84.15 632.806 84.0715C634.669 84.0365 635.894 84.3275 636.631 84.9915C637.347 85.6368 637.726 86.7535 637.586 88.7097C637.495 89.982 637.546 91.3582 637.628 92.7318C637.656 93.2017 637.688 93.6695 637.72 94.1337C637.781 95.0392 637.842 95.9312 637.873 96.7992C637.92 98.108 637.897 99.3162 637.713 100.353C637.529 101.391 637.191 102.214 636.644 102.794C636.122 103.348 635.339 103.72 634.325 103.948C633.312 104.177 632.114 104.253 630.81 104.253C629.625 104.252 628.376 104.187 627.121 104.123C626.997 104.116 626.872 104.11 626.748 104.103C625.376 104.033 624.005 103.971 622.751 104.004C618.841 104.108 614.932 104.085 610.849 104.061C609.031 104.05 607.177 104.039 605.274 104.038C603.115 104.038 600.996 104.028 598.907 104.019C593.916 103.995 589.092 103.973 584.275 104.085C582.632 104.123 581.615 103.893 580.996 103.343C580.389 102.806 580.038 101.845 580.045 100.073C580.159 69.2548 580.148 38.4366 580.067 7.61912Z" stroke="black"/>
<path d="M580.067 7.61912V7.61911C580.062 5.96127 580.303 4.94024 580.855 4.32113C581.392 3.71827 582.338 3.37526 584.089 3.38971C600.582 3.52596 617.077 3.5209 633.57 3.38232C635.306 3.36774 636.302 3.68206 636.865 4.27049C637.426 4.85787 637.681 5.85023 637.582 7.53074C637.354 11.3706 637.384 15.2382 637.575 19.0738C637.659 20.7635 637.351 21.7588 636.749 22.3434C636.139 22.9357 635.101 23.2311 633.411 23.1986L633.402 23.6985L633.411 23.1986C629.417 23.1218 625.421 23.1393 621.432 23.1568C621.257 23.1575 621.082 23.1583 620.907 23.1591C616.741 23.1771 612.583 23.1906 608.429 23.0929L608.417 23.5927L608.429 23.0929C606.518 23.0479 604.948 23.2948 603.907 24.1997C602.839 25.1279 602.462 26.6206 602.617 28.7062C602.86 31.9913 602.821 35.3235 602.624 38.6277C602.514 40.4622 602.851 41.8151 603.806 42.6748C604.742 43.5171 606.146 43.7674 607.863 43.7333C611.217 43.6664 614.573 43.6912 617.937 43.716C618.489 43.7201 619.042 43.7242 619.595 43.7279C623.51 43.7539 627.435 43.7596 631.356 43.5995C633.383 43.5166 634.508 43.8722 635.127 44.5452C635.753 45.2258 635.998 46.3755 635.87 48.2484C635.643 51.5821 635.599 54.9718 635.885 58.3115C636.064 60.4079 635.811 61.7055 635.113 62.4719C634.421 63.2304 633.155 63.6162 630.892 63.5049C627.055 63.3161 623.212 63.3164 619.378 63.3449C618.699 63.3499 618.019 63.3558 617.34 63.3618C614.186 63.3893 611.039 63.4168 607.895 63.3553C606.187 63.322 604.782 63.5739 603.84 64.4146C602.878 65.2728 602.526 66.6239 602.625 68.4605C602.813 71.9272 602.773 75.4207 602.635 78.9047C602.567 80.6406 602.863 82.0119 603.758 82.9282C604.652 83.8447 606.028 84.1872 607.82 84.1554C611.929 84.0824 616.04 84.0993 620.158 84.1162L620.302 84.1168C624.466 84.1339 628.636 84.15 632.806 84.0715C634.669 84.0365 635.894 84.3275 636.631 84.9915C637.347 85.6368 637.726 86.7535 637.586 88.7097C637.495 89.982 637.546 91.3582 637.628 92.7318C637.656 93.2017 637.688 93.6695 637.72 94.1337C637.781 95.0392 637.842 95.9312 637.873 96.7992C637.92 98.108 637.897 99.3162 637.713 100.353C637.529 101.391 637.191 102.214 636.644 102.794C636.122 103.348 635.339 103.72 634.325 103.948C633.312 104.177 632.114 104.253 630.81 104.253C629.625 104.252 628.376 104.187 627.121 104.123C626.997 104.116 626.872 104.11 626.748 104.103C625.376 104.033 624.005 103.971 622.751 104.004C618.841 104.108 614.932 104.085 610.849 104.061C609.031 104.05 607.177 104.039 605.274 104.038C603.115 104.038 600.996 104.028 598.907 104.019C593.916 103.995 589.092 103.973 584.275 104.085C582.632 104.123 581.615 103.893 580.996 103.343C580.389 102.806 580.038 101.845 580.045 100.073C580.159 69.2548 580.148 38.4366 580.067 7.61912Z" stroke="black" stroke-opacity="0.2"/>
<path d="M572.715 85.9236C572.866 90.9953 572.782 95.6643 572.972 100.322C573.092 103.231 572.213 104.582 569.073 104.567C552.245 104.481 535.416 104.49 518.588 104.563C515.625 104.576 514.456 103.534 514.463 100.475C514.542 69.317 514.542 38.1588 514.494 7.00075C514.489 3.99697 515.642 2.90059 518.637 2.91518C535.465 2.99709 552.294 2.98275 569.122 2.91689C571.871 2.90615 573.045 3.89944 572.955 6.71981C572.816 11.0475 572.818 15.3858 572.948 19.714C573.042 22.8557 571.499 23.7083 568.65 23.6792C560.153 23.5924 551.651 23.8056 543.159 23.5921C539.186 23.4923 538.021 24.9964 537.993 28.8522C537.889 43.1967 537.774 43.1954 551.969 43.1955C556.967 43.1955 561.973 43.3648 566.962 43.1416C570.314 42.9915 571.382 44.3305 571.241 47.5119C571.064 51.5028 571.035 55.5171 571.256 59.5038C571.455 63.0955 569.927 64.0555 566.539 63.9692C558.713 63.7696 550.876 64.0354 543.049 63.8534C539.456 63.7698 538.074 64.9206 537.993 68.6825C537.674 83.6214 537.564 83.619 552.33 83.6151C557.496 83.6137 562.667 83.4644 567.822 83.6992C569.438 83.7728 571.006 84.8814 572.715 85.9236Z" fill="#E16D3C"/>
<path d="M107.274 14.071C107.355 4.99957 106.377 6.02618 115.172 6.01586C126.442 6.00262 125.353 4.88506 125.229 16.2274C125.146 23.8492 124.064 31.4908 124.404 39.0796C124.944 51.0972 125.791 63.1529 127.536 75.0417C128.357 80.6315 133.606 84.4775 138.823 85.6644C145.609 87.2082 153.298 87.029 158.145 81.1243C161.262 77.3273 163.825 71.8814 164.001 67.0778C164.672 48.7845 164.421 30.4498 164.171 12.1352C164.107 7.50256 165.118 5.72637 170.129 5.88189C181.267 6.22747 181.278 5.96587 181.278 17.3274C181.277 36.3115 181.648 55.3062 181.111 74.2751C180.844 83.7085 177.254 92.8915 168.688 97.495C163.648 100.204 158.294 104.224 151.458 103.12C147.401 102.465 143.151 102.959 138.988 103.009C127.32 103.149 118.367 97.6171 112.479 88.2325C109.405 83.3325 107.691 76.8445 107.501 71.0043C106.89 52.2065 107.274 33.3766 107.274 14.071Z" fill="#E16D3C"/>
<path d="M438.403 103C433.146 103.846 432.154 101.588 432.182 97.1532C432.362 68.6545 432.39 40.1532 432.16 11.6551C432.121 6.88375 433.652 5.73848 438.113 5.90084C446.768 6.21584 455.444 5.91323 464.109 6.0121C477.936 6.17 488.579 12.4785 497.304 22.9143C506.34 33.723 510.037 46.3068 508.05 59.8154C505.778 75.254 498.668 88.3845 483.977 95.9149C474.244 100.904 463.884 103.371 452.883 103.025C448.221 102.878 443.551 103 438.403 103ZM459.516 83.6888C477.425 82.2023 489.142 65.1879 484.396 45.1394C481.317 32.1377 470.381 23.8822 457.753 23.7467C453.83 23.7046 452.529 25.016 452.567 28.9335C452.727 45.2407 452.752 61.5519 452.546 77.8582C452.488 82.4878 454.144 84.37 459.516 83.6888Z" fill="#E16D3C"/>
</svg>
